<?xml version="1.0" encoding="UTF-8"?>
<svg xmlns="http://www.w3.org/2000/svg" viewBox="0 0 186 61.75"><defs><style>.cls-1{fill:#FFF;}</style></defs><title>kattankattan-logo-negro</title><g id="Capa_2" data-name="Capa 2"><g id="Capa_3" data-name="Capa 3"><g id="menu"><path class="cls-1" d="M0,0H5.41V20.83H0Z"/><polyline class="cls-1" points="10.57 9.84 20.59 20.83 13.93 20.83 4.31 10.42 13.93 0 20.59 0 10.57 10.98"/><path class="cls-1" d="M40.64,0h5.51l7.79,20.83H48.28L47,17.09H39.73l-1.31,3.74H32.84ZM41,13.07h4.73l-2.3-7.29h-.06Z"/><path class="cls-1" d="M84.66,4.67H78.44V20.83H73V4.67H66.81V0H84.66Z"/><path class="cls-1" d="M118,4.67h-6.21V20.83H106.4V4.67h-6.21V0H118Z"/><path class="cls-1" d="M138.59,0h5.51l7.79,20.83h-5.66L145,17.09h-7.27l-1.31,3.74H130.8Zm.35,13.07h4.73l-2.31-7.29h-.06Z"/><path class="cls-1" d="M168,0h5.57l7.23,12.84h.06V0H186V20.83h-5.57l-7.24-13h-.06v13H168Z"/><path class="cls-1" d="M186,61.7h-5.41V40.92H186Z"/><polyline class="cls-1" points="175.43 51.9 165.41 40.92 172.07 40.92 181.69 51.32 172.07 61.75 165.41 61.75 175.43 50.77"/><path class="cls-1" d="M32.84,40.92h5.57l1.31,3.73H47l1.28-3.73h5.66L46.15,61.75H40.64ZM43.35,56h.06l2.3-7.29H41Z"/><path class="cls-1" d="M84.66,61.75H66.81V57.08H73V40.92h5.43V57.08h6.22Z"/><path class="cls-1" d="M118,61.75H100.19V57.08h6.21V40.92h5.43V57.08H118Z"/><path class="cls-1" d="M130.8,40.92h5.57l1.31,3.73H145l1.28-3.73h5.66L144.1,61.75h-5.51ZM141.3,56h.06l2.31-7.29h-4.73Z"/><path class="cls-1" d="M18,61.75H12.4L5.17,48.91H5.11V61.75H0V40.92H5.57l7.24,13h.06v-13H18Z"/></g></g></g></svg>